<svg version="1.0" xmlns="http://www.w3.org/2000/svg"
     width="512.000000pt" height="512.000000pt" viewBox="0 0 512.000000 512.000000"
     preserveAspectRatio="xMidYMid meet">
  <g transform="translate(0.000000,512.000000) scale(0.100000,-0.100000)"
     fill="#fff" stroke="none">
    <path d="M2382 4941 c-30 -4 -57 -13 -62 -21 -5 -8 -46 -106 -91 -218 -45
-111 -89 -212 -98 -222 -9 -11 -54 -31 -106 -45 -127 -37 -252 -88 -382 -156
-62 -32 -122 -59 -134 -59 -11 0 -115 41 -231 90 -115 50 -219 90 -230 90 -28
0 -328 -300 -328 -328 0 -11 41 -115 90 -230 50 -116 90 -220 90 -231 0 -12
-27 -72 -59 -134 -67 -125 -118 -251 -156 -383 -14 -51 -34 -96 -45 -105 -10
-9 -112 -54 -225 -99 -113 -45 -212 -89 -220 -96 -8 -8 -16 -50 -20 -101 -9
-104 -1 -335 13 -359 5 -9 107 -56 227 -104 119 -48 222 -94 229 -101 7 -8 35
-81 61 -164 31 -97 74 -201 122 -294 40 -80 73 -153 73 -163 0 -11 -41 -114
-90 -230 -50 -115 -90 -219 -90 -230 0 -28 300 -328 328 -328 11 0 115 40 230
90 116 49 220 90 231 90 12 0 72 -27 134 -59 130 -68 255 -119 382 -156 52
-14 97 -34 106 -45 9 -10 53 -111 98 -222 45 -112 85 -209 90 -217 12 -19 97
-29 241 -29 144 0 229 10 241 29 5 8 45 105 90 217 45 111 89 212 98 222 9 11
54 31 105 45 132 38 258 89 383 156 62 32 122 59 134 59 11 0 115 -41 231 -90
115 -50 219 -90 230 -90 28 0 328 300 328 328 0 11 -41 115 -90 230 -49 116
-90 219 -90 229 0 11 33 85 74 165 45 89 90 198 115 279 24 74 48 145 55 159
9 20 45 39 176 92 278 112 289 117 298 147 9 34 9 388 0 422 -8 29 -36 42
-306 149 -74 29 -142 60 -153 69 -10 9 -30 55 -44 106 -37 127 -88 252 -156
382 -32 62 -59 122 -59 134 0 11 41 115 90 231 50 115 90 219 90 230 0 28
-300 328 -328 328 -11 0 -115 -40 -230 -90 -116 -49 -220 -90 -231 -90 -12 0
-72 27 -134 59 -125 67 -251 118 -383 156 -51 14 -96 34 -105 45 -9 10 -53
111 -98 222 -45 112 -85 209 -90 217 -6 9 -35 18 -68 22 -70 9 -278 9 -351 0z
m317 -681 c759 -67 1377 -613 1531 -1353 93 -446 -5 -935 -262 -1309 -391
-568 -1086 -848 -1755 -708 -920 192 -1515 1099 -1323 2017 163 781 838 1338
1650 1362 25 0 96 -4 159 -9z"/>
    <path d="M2420 4089 c-521 -50 -982 -360 -1219 -819 -235 -454 -235 -966 0
-1420 345 -668 1128 -983 1847 -744 216 71 425 199 586 359 421 416 567 1022
381 1581 -150 453 -516 819 -969 969 -130 43 -228 63 -374 75 -129 11 -131 11
-252 -1z m375 -185 c358 -59 698 -281 900 -589 154 -234 226 -476 226 -751 0
-159 -20 -292 -67 -434 -70 -209 -183 -387 -348 -548 -262 -254 -582 -383
-950 -383 -275 0 -517 72 -751 226 -309 202 -526 536 -590 905 -22 124 -22
336 0 460 74 425 347 795 730 988 265 133 548 175 850 126z"/>
  </g>
</svg>
